<?xml version="1.0" encoding="UTF-8" standalone="no"?>
<!-- Created with Inkscape (http://www.inkscape.org/) -->

<svg
   xmlns:dc="http://purl.org/dc/elements/1.1/"
   xmlns:cc="http://creativecommons.org/ns#"
   xmlns:rdf="http://www.w3.org/1999/02/22-rdf-syntax-ns#"
   xmlns:svg="http://www.w3.org/2000/svg"
   xmlns="http://www.w3.org/2000/svg"
   xmlns:sodipodi="http://sodipodi.sourceforge.net/DTD/sodipodi-0.dtd"
   xmlns:inkscape="http://www.inkscape.org/namespaces/inkscape"
   width="601.90381"
   height="185.57143"
   id="svg5248"
   version="1.1"
   inkscape:version="0.91 r13725"
   sodipodi:docname="expotec-logo-white.svg">
  <defs
     id="defs5250">
    <inkscape:path-effect
       effect="spiro"
       id="path-effect4234"
       is_visible="true" />
    <clipPath
       clipPathUnits="userSpaceOnUse"
       id="clipPath3456">
      <rect
         style="fill:#f2f2f2;fill-opacity:1;fill-rule:nonzero;stroke:none"
         id="rect3458"
         width="444.80222"
         height="592.47656"
         x="-4814.5391"
         y="2096.7578" />
    </clipPath>
    <clipPath
       clipPathUnits="userSpaceOnUse"
       id="clipPath4247">
      <path
         style="fill:none;stroke:#000000;stroke-width:1px;stroke-linecap:butt;stroke-linejoin:round;stroke-opacity:1"
         d="m -4725.5787,2286.6884 3.1136,11.5648 2.224,38.6978 -3.1136,37.3634 -0.4448,25.3537 1.3344,31.581 -3.1136,15.568 -3.5585,10.2305 0.4448,6.2272 7.5617,4.0033 10.2304,5.3376 9.7857,9.7856 20.9057,19.5713 4.0032,6.2273 -3.5584,4.0032 -11.1201,0.4448 -6.2272,-5.7825 -6.2272,-5.3376 -3.5585,8.8961 2.2241,2.224 13.7888,6.672 32.9154,2.224 45.8146,4.448 38.6978,-1.7792 37.8082,-2.224 12.0097,-1.3344 6.672,-4.8928 c 0,0 0.4448,-14.2337 0.4448,-16.0129 0,-1.7792 -1.3344,-30.6913 -1.3344,-30.6913 l -4.448,-28.9122 c 0,0 -7.5617,-33.805 -7.5617,-35.5842 0,-1.7792 0.4448,-7.5616 0.4448,-7.5616 0,0 0.4448,-23.5745 0.4448,-26.2433 0,-2.6688 0,-32.4706 0,-32.4706 0,0 0,-17.7921 0,-23.5745 0,-5.7824 2.6688,-30.2466 2.6688,-30.2466 l 4.0033,11.1201 6.672,2.224 15.5681,-1.5568 16.4577,-6.0048 13.5664,-11.7873 c 0,0 -7.1168,-28.0225 -7.784,-29.8017 -0.6672,-1.7792 -3.7808,-11.5649 -3.7808,-11.5649 l -3.7809,-23.5745 c 0,0 -8.0064,-21.3505 -8.2288,-22.2401 -0.2224,-0.8896 -10.8976,-20.2385 -10.8976,-20.2385 0,0 -6.6866,-6.3682 -7.4729,-6.6827 -0.7863,-0.3145 -14.468,-5.3469 -16.3552,-5.6614 -1.8871,-0.3146 -23.1174,-4.7179 -23.1174,-4.7179 l -12.8954,-2.3589 -9.4357,-3.617 -8.1776,-4.4033 -5.6614,-0.9436 -5.3469,-1.5726 6.605,5.3469 c 0,0 2.5162,4.246 2.5162,4.8751 0,0.629 -1.7299,7.3913 -1.7299,7.3913 l -4.0888,5.9759 -6.1332,2.3589 -20.0186,6.3445 -11.4537,3.5584 -6.0048,0.556 -12.0097,-0.6672 c 0,0 -10.8976,-2.6688 -12.6768,-3.5584 -1.7792,-0.8896 -12.4545,-4.6704 -12.4545,-4.6704 0,0 -5.56,-6.4497 -6.0048,-7.3393 -0.4448,-0.8896 0,-7.3392 -0.4448,-8.6736 -0.4448,-1.3344 -0.2224,-6.0048 -0.2224,-6.0048 l 6.0048,-3.1137 -6.3333,0.2938 -17.6133,4.4034 -16.8269,5.0323 -10.8511,1.4154 -18.085,5.5041 -11.9519,6.9195 -3.7742,8.4921 -7.5486,12.5809 -5.6614,20.7585 -3.1452,15.7262 -5.0324,20.1294 -6.2904,19.1859 -3.7743,13.21 5.0324,5.9759 14.468,7.863 10.3792,4.7179 14.4681,2.5162 11.3228,-0.3146 3.7743,-6.6049 0.629,-2.2017 z"
         id="path4249"
         inkscape:connector-curvature="0" />
    </clipPath>
  </defs>
  <sodipodi:namedview
     id="base"
     pagecolor="#ffffff"
     bordercolor="#666666"
     borderopacity="1.0"
     inkscape:pageopacity="0.0"
     inkscape:pageshadow="2"
     inkscape:zoom="0.38890872"
     inkscape:cx="386.01026"
     inkscape:cy="-21.462864"
     inkscape:document-units="px"
     inkscape:current-layer="layer1"
     showgrid="false"
     inkscape:window-width="654"
     inkscape:window-height="735"
     inkscape:window-x="264"
     inkscape:window-y="0"
     inkscape:window-maximized="0"
     showguides="true"
     inkscape:guide-bbox="true"
     fit-margin-top="0"
     fit-margin-left="0"
     fit-margin-right="0"
     fit-margin-bottom="0" />
  <metadata
     id="metadata5253">
    <rdf:RDF>
      <cc:Work
         rdf:about="">
        <dc:format>image/svg+xml</dc:format>
        <dc:type
           rdf:resource="http://purl.org/dc/dcmitype/StillImage" />
        <dc:title />
      </cc:Work>
    </rdf:RDF>
  </metadata>
  <g
     inkscape:label="Camada 1"
     inkscape:groupmode="layer"
     id="layer1"
     transform="translate(-73.897382,-580.45208)">
    <path
       inkscape:connector-curvature="0"
       id="path4152"
       style="font-style:normal;font-variant:normal;font-weight:normal;font-stretch:normal;font-size:medium;line-height:147.00000286%;font-family:'Eras Bold ITC';-inkscape-font-specification:'Eras Bold ITC';letter-spacing:0px;word-spacing:0px;fill:#ffffff;fill-opacity:1;stroke:none"
       d="m 216.6431,730.9101 q 7.45761,-7.20474 18.25462,-18.1092 10.84564,-10.90447 16.89646,-17.33033 l -3.35933,-9.68745 q -0.95922,-2.62875 -2.81463,-7.35078 l -3.00994,-7.5455 q -1.10592,-2.82348 -2.45823,-6.42585 6.24848,0.0974 12.8126,0.0974 5.20267,0 11.15858,-0.0974 1.09971,4.23522 2.7495,9.20065 1.71036,4.91674 2.51585,8.56779 2.76953,-3.35896 7.3435,-8.32438 4.58592,-5.01412 8.20183,-9.44406 5.13015,0.0974 11.20803,0.0974 3.93848,0 11.20721,-0.0974 -4.73179,5.01411 -13.89496,14.21476 -9.16315,9.20064 -17.53722,18.15788 4.57853,13.43587 13.02864,34.07647 -7.65854,-0.0974 -11.49977,-0.0974 -6.41825,0 -12.71452,0.0974 -0.94024,-3.89445 -2.93449,-9.8335 -1.93367,-5.98772 -3.23115,-11.00182 -2.73285,3.40764 -8.57805,9.59009 -5.84519,6.18245 -10.39444,11.24523 -7.07507,-0.0974 -11.20803,-0.0974 -4.57057,0 -11.74206,0.0974 z" />
    <path
       inkscape:connector-curvature="0"
       id="path4154"
       style="font-style:normal;font-variant:normal;font-weight:normal;font-stretch:normal;font-size:medium;line-height:147.00000286%;font-family:'Eras Bold ITC';-inkscape-font-specification:'Eras Bold ITC';letter-spacing:0px;word-spacing:0px;fill:#ffffff;fill-opacity:1;stroke:none"
       d="m 294.48865,730.9101 4.03184,-12.46225 7.23957,-24.34033 4.76541,-17.23296 q 0.72986,-2.7748 1.41105,-5.54959 0.51388,-2.09327 1.63638,-6.86398 6.3824,0.14604 10.27225,0.14604 3.74397,0 10.30727,-0.19472 6.57524,-0.2434 11.0972,-0.2434 6.51549,0 9.4242,0.82756 2.95734,0.82758 5.04356,2.62876 2.09817,1.75251 3.16577,4.13786 1.06761,2.38535 1.1413,5.45223 0.0856,3.01821 -0.69115,6.18245 -1.6014,6.52321 -6.08843,11.92677 -4.48703,5.40355 -10.88184,8.08099 -6.39482,2.67743 -13.54241,2.67743 -2.62565,0 -5.93448,-0.58416 0.16076,-2.23932 0.17856,-6.66926 0.0178,-4.42994 -0.13708,-6.57189 2.03186,0.43813 4.36576,0.43813 4.91094,0 7.8671,-2.33667 3.01674,-2.38536 3.85329,-5.79301 0.40632,-1.65514 0.18219,-2.92083 -0.21218,-1.31438 -1.17597,-2.14195 -0.9638,-0.82757 -2.31411,-1.07098 -1.35032,-0.2434 -3.14938,-0.2434 -1.75042,0 -3.67063,0.0974 l -4.15603,0.29208 q -2.9386,9.39537 -6.09933,20.88402 -5.77091,20.93268 -6.79867,25.11922 l -1.5536,6.32848 -9.6521,-0.0974 q -2.04216,0 -10.13749,0.0974 z" />
    <path
       inkscape:connector-curvature="0"
       id="path4156"
       style="font-style:normal;font-variant:normal;font-weight:normal;font-stretch:normal;font-size:medium;line-height:147.00000286%;font-family:'Eras Bold ITC';-inkscape-font-specification:'Eras Bold ITC';letter-spacing:0px;word-spacing:0px;fill:#ffffff;fill-opacity:1;stroke:none"
       d="m 414.67927,663.19529 q 7.77969,0 14.46203,2.09327 6.68233,2.09328 10.94417,6.71793 4.2738,4.57599 5.47813,10.56371 1.20432,5.98773 -0.70779,13.77663 -2.00773,8.17835 -6.65878,15.04232 -4.59049,6.8153 -11.30469,11.58601 -6.71421,4.7707 -14.94638,7.01002 -8.22024,2.19062 -16.53478,2.19062 -8.2173,0 -15.22804,-2.14195 -6.9988,-2.19063 -11.40734,-7.01001 -4.34795,-4.86807 -5.22387,-10.80712 -0.87592,-5.93903 0.90474,-13.19245 2.61721,-10.66107 9.50001,-18.69338 6.94337,-8.08099 17.73078,-12.60829 10.83604,-4.52731 22.99181,-4.52731 z m -4.47239,14.65289 q -5.59166,0 -10.79479,2.77479 -5.19118,2.72612 -8.82937,7.64287 -3.62622,4.86806 -5.00055,10.46634 -1.26678,5.16016 -0.13041,9.44405 1.185,4.2839 5.10941,6.71794 3.93637,2.38535 8.99316,2.38535 5.39717,0 10.52778,-2.67744 5.19118,-2.72612 8.72016,-7.59419 3.58956,-4.91674 4.90415,-10.27162 1.27872,-5.20883 0.16625,-9.59009 -1.10052,-4.42994 -4.73319,-6.86397 -3.63268,-2.43403 -8.9326,-2.43403 z" />
    <path
       inkscape:connector-curvature="0"
       id="path4158"
       style="font-style:normal;font-variant:normal;font-weight:normal;font-stretch:normal;font-size:medium;line-height:147.00000286%;font-family:'Eras Bold ITC';-inkscape-font-specification:'Eras Bold ITC';letter-spacing:0px;word-spacing:0px;fill:#ffffff;fill-opacity:1;stroke:none"
       d="m 459.02915,730.9101 q 8.23921,-23.6588 15.70467,-52.08832 l -20.8449,0.53549 1.56965,-5.40355 q 1.25811,-4.33258 2.62213,-9.49273 13.78505,0.0974 32.16458,0.0974 l 12.02184,-0.0486 11.66954,0 6.33296,-0.0487 -1.45096,4.72202 q -1.12665,3.7971 -1.83338,6.27982 -0.65816,2.48271 -0.96888,3.74841 -10.28582,-0.48681 -17.04443,-0.48681 l -3.40361,0 q -2.84463,8.61648 -5.02623,15.91858 -3.10426,10.46634 -5.82199,20.34851 -2.70579,9.8335 -4.19963,15.91858 -7.95029,-0.0974 -10.28419,-0.0974 -2.0908,0 -11.20721,0.0974 z" />
    <path
       inkscape:connector-curvature="0"
       id="path4160"
       style="font-style:normal;font-variant:normal;font-weight:normal;font-stretch:normal;font-size:medium;line-height:147.00000286%;font-family:'Eras Bold ITC';-inkscape-font-specification:'Eras Bold ITC';letter-spacing:0px;word-spacing:0px;fill:#ffffff;fill-opacity:1;stroke:none"
       d="m 507.40912,730.9101 q 4.29887,-12.55961 6.91315,-21.03005 2.6629,-8.47043 6.63957,-22.49047 4.03723,-14.06871 5.1606,-18.64469 l 1.00309,-4.2839 q 11.45115,0.0974 27.73988,0.0974 15.02453,0 26.52349,-0.0974 l -0.49162,1.60646 q -0.19198,0.58417 -1.28283,4.23522 l -1.59437,5.30619 q -0.51552,1.70383 -0.94574,3.45633 -9.28865,-0.38944 -15.65828,-0.38944 -7.00172,0 -9.49343,0.0486 -2.43115,0 -7.68163,0.19472 l -3.3202,11.14788 q 5.70167,0.14603 13.3355,0.14603 2.72289,0 14.57333,-0.34076 -2.01593,6.23113 -4.56881,14.84761 -8.3879,-0.0974 -12.90984,-0.0974 -6.70999,0 -15.10819,0.34077 l -3.4875,11.8294 5.59166,0 q 2.47977,0 10.29532,-0.14605 l 10.12473,-0.2434 q 2.24862,-0.0487 7.58355,-0.38944 -2.35218,7.20474 -4.62937,14.89628 -11.84014,-0.0974 -25.98945,-0.0974 l -21.40609,0.0486 -6.91645,0.0487 z" />
    <path
       inkscape:connector-curvature="0"
       id="path4162"
       style="font-style:normal;font-variant:normal;font-weight:normal;font-stretch:normal;font-size:medium;line-height:147.00000286%;font-family:'Eras Bold ITC';-inkscape-font-specification:'Eras Bold ITC';letter-spacing:0px;word-spacing:0px;fill:#ffffff;fill-opacity:1;stroke:none"
       d="m 634.64821,714.69944 q -1.28857,2.87216 -3.38194,8.03231 -2.08141,5.11147 -3.06629,7.93495 -10.77581,1.5091 -18.9445,1.5091 -7.87693,0 -14.20614,-1.94722 -6.26862,-1.99591 -10.85806,-6.47453 -4.52886,-4.52731 -5.46617,-10.61239 -0.93731,-6.08508 0.91505,-13.63058 2.16308,-8.81121 7.14173,-15.82123 5.03923,-7.05869 12.31301,-11.73204 7.33434,-4.72202 15.16641,-6.71793 7.84402,-2.04459 15.67234,-2.04459 7.19621,0 17.34191,1.84987 l -0.90661,4.08917 q -0.56005,2.67745 -1.15431,5.89037 l -1.02201,5.54959 q -5.35428,-1.36305 -8.78426,-1.84986 -3.38135,-0.48681 -6.39599,-0.48681 -6.56411,0 -12.46074,2.62875 -5.89663,2.62876 -10.14219,7.64288 -4.24555,5.0141 -5.73939,11.09918 -1.36239,5.5496 0.18605,9.54142 1.56039,3.94313 5.30143,6.13376 3.80163,2.14194 10.12263,2.14194 3.45224,0 7.61941,-0.53548 4.22775,-0.58417 10.74863,-2.19063 z" />
    <path
       sodipodi:nodetypes="ssscsssssssscczcssccsscsssssssssssssssssss"
       style="fill:#ffffff;fill-opacity:1"
       d="m 161.23311,750.47132 c -1.93395,-0.33812 -6.15269,-1.40773 -9.37523,-2.3769 -13.2193,-3.9758 -22.61087,-3.04964 -32.47679,3.2027 -1.84845,1.17134 -3.52911,2.00468 -3.73492,1.85186 -0.61315,-0.45511 4.71372,-6.77325 7.96462,-9.44689 4.01507,-3.30224 8.59173,-5.65832 14.2084,-7.31465 5.03361,-1.48449 8.34274,-1.74428 19.15845,-1.50408 4.28834,0.0953 9.95056,-0.2645 14.26791,-0.90642 8.8736,-1.31938 9.62466,-0.97266 7.98353,3.6861 -1.58356,4.49593 -6.27837,10.61655 -9.16599,11.94936 -3.15186,1.45496 -4.60974,1.59672 -8.82998,0.85892 z m -44.42253,-9.80076 c -0.2187,-1.47552 4.81577,-12.32269 8.48581,-18.28289 6.28761,-10.61135 15.62804,-17.40757 25.39557,-22.51154 3.66274,-1.99064 7.40583,-3.62514 13.11725,-5.042 5.71121,-1.41685 20.40407,-5.63957 30.25194,-8.52852 9.21862,-2.35126 17.38433,-5.55495 19.38252,-6.49098 2.08241,-0.97552 8.81645,-3.35081 10.07689,-3.06999 1.70731,0.38043 1.35755,3.16884 -1.02283,8.15086 -1.70687,4.71461 -4.01916,8.56871 -6.47624,11.96629 -5.10279,7.03146 -9.20165,10.12801 -16.67988,12.60158 -8.72879,2.88716 -16.89579,4.30755 -29.7243,5.16961 -6.61287,0.4444 -14.217,1.13428 -16.89794,1.53304 -13.40664,1.99339 -21.20283,6.78 -30.609,18.78948 -2.84271,3.62948 -5.22761,6.20125 -5.29979,5.71506 z m -0.88062,-14.33374 c -0.073,-0.48512 0.52549,-4.15115 1.32769,-8.14669 0.8022,-3.99559 1.52255,-7.8353 1.60053,-8.53273 0.0773,-0.69743 0.58908,-2.73735 1.1352,-4.5331 0.54611,-1.79575 1.57389,-5.17502 2.2837,-7.5095 3.54867,-11.66923 8.64866,-21.85106 15.21964,-30.38442 11.64778,-15.12667 26.06199,-24.1257 61.43434,-38.35476 26.90007,-10.821 38.81187,-16.3815 49.50448,-23.1093 20.33683,-12.79572 23.81416,-14.32112 24.74269,-10.85354 0.7777,2.90448 -5.95075,21.05652 -11.12315,30.0079 -4.86969,8.42732 -11.00777,14.32824 -19.2433,18.49962 -8.76124,4.43771 -27.82881,11.03964 -52.4935,18.17525 -8.66198,2.50598 -18.38396,5.53142 -21.60457,6.72317 -16.60018,6.14316 -27.16453,14.83151 -39.10083,32.15786 -2.96195,4.29957 -7.11838,12.35543 -10.1407,19.65408 -1.59709,3.85698 -3.01801,7.02967 -3.15766,7.05043 -0.13964,0.0215 -0.31258,-0.35916 -0.38456,-0.84427 z"
       id="path5275"
       inkscape:connector-curvature="0" />
    <g
       id="g5070"
       transform="matrix(0.36891274,0,0,0.36891274,-305.52711,-311.62316)" />
  </g>
</svg>
