<?xml version="1.0" encoding="UTF-8" standalone="no"?>
<!-- Created with Inkscape (http://www.inkscape.org/) -->

<svg
   xmlns:dc="http://purl.org/dc/elements/1.1/"
   xmlns:cc="http://creativecommons.org/ns#"
   xmlns:rdf="http://www.w3.org/1999/02/22-rdf-syntax-ns#"
   xmlns:svg="http://www.w3.org/2000/svg"
   xmlns="http://www.w3.org/2000/svg"
   xmlns:sodipodi="http://sodipodi.sourceforge.net/DTD/sodipodi-0.dtd"
   xmlns:inkscape="http://www.inkscape.org/namespaces/inkscape"
   width="744.09448"
   height="744"
   id="svg5248"
   version="1.1"
   inkscape:version="0.91 r13725"
   sodipodi:docname="expotec-logo.svg">
  <defs
     id="defs5250">
    <inkscape:path-effect
       effect="spiro"
       id="path-effect4234"
       is_visible="true" />
    <clipPath
       clipPathUnits="userSpaceOnUse"
       id="clipPath3456">
      <rect
         style="fill:#f2f2f2;fill-opacity:1;fill-rule:nonzero;stroke:none"
         id="rect3458"
         width="444.80222"
         height="592.47656"
         x="-4814.5391"
         y="2096.7578" />
    </clipPath>
    <clipPath
       clipPathUnits="userSpaceOnUse"
       id="clipPath4247">
      <path
         style="fill:none;stroke:#000000;stroke-width:1px;stroke-linecap:butt;stroke-linejoin:round;stroke-opacity:1"
         d="m -4725.5787,2286.6884 3.1136,11.5648 2.224,38.6978 -3.1136,37.3634 -0.4448,25.3537 1.3344,31.581 -3.1136,15.568 -3.5585,10.2305 0.4448,6.2272 7.5617,4.0033 10.2304,5.3376 9.7857,9.7856 20.9057,19.5713 4.0032,6.2273 -3.5584,4.0032 -11.1201,0.4448 -6.2272,-5.7825 -6.2272,-5.3376 -3.5585,8.8961 2.2241,2.224 13.7888,6.672 32.9154,2.224 45.8146,4.448 38.6978,-1.7792 37.8082,-2.224 12.0097,-1.3344 6.672,-4.8928 c 0,0 0.4448,-14.2337 0.4448,-16.0129 0,-1.7792 -1.3344,-30.6913 -1.3344,-30.6913 l -4.448,-28.9122 c 0,0 -7.5617,-33.805 -7.5617,-35.5842 0,-1.7792 0.4448,-7.5616 0.4448,-7.5616 0,0 0.4448,-23.5745 0.4448,-26.2433 0,-2.6688 0,-32.4706 0,-32.4706 0,0 0,-17.7921 0,-23.5745 0,-5.7824 2.6688,-30.2466 2.6688,-30.2466 l 4.0033,11.1201 6.672,2.224 15.5681,-1.5568 16.4577,-6.0048 13.5664,-11.7873 c 0,0 -7.1168,-28.0225 -7.784,-29.8017 -0.6672,-1.7792 -3.7808,-11.5649 -3.7808,-11.5649 l -3.7809,-23.5745 c 0,0 -8.0064,-21.3505 -8.2288,-22.2401 -0.2224,-0.8896 -10.8976,-20.2385 -10.8976,-20.2385 0,0 -6.6866,-6.3682 -7.4729,-6.6827 -0.7863,-0.3145 -14.468,-5.3469 -16.3552,-5.6614 -1.8871,-0.3146 -23.1174,-4.7179 -23.1174,-4.7179 l -12.8954,-2.3589 -9.4357,-3.617 -8.1776,-4.4033 -5.6614,-0.9436 -5.3469,-1.5726 6.605,5.3469 c 0,0 2.5162,4.246 2.5162,4.8751 0,0.629 -1.7299,7.3913 -1.7299,7.3913 l -4.0888,5.9759 -6.1332,2.3589 -20.0186,6.3445 -11.4537,3.5584 -6.0048,0.556 -12.0097,-0.6672 c 0,0 -10.8976,-2.6688 -12.6768,-3.5584 -1.7792,-0.8896 -12.4545,-4.6704 -12.4545,-4.6704 0,0 -5.56,-6.4497 -6.0048,-7.3393 -0.4448,-0.8896 0,-7.3392 -0.4448,-8.6736 -0.4448,-1.3344 -0.2224,-6.0048 -0.2224,-6.0048 l 6.0048,-3.1137 -6.3333,0.2938 -17.6133,4.4034 -16.8269,5.0323 -10.8511,1.4154 -18.085,5.5041 -11.9519,6.9195 -3.7742,8.4921 -7.5486,12.5809 -5.6614,20.7585 -3.1452,15.7262 -5.0324,20.1294 -6.2904,19.1859 -3.7743,13.21 5.0324,5.9759 14.468,7.863 10.3792,4.7179 14.4681,2.5162 11.3228,-0.3146 3.7743,-6.6049 0.629,-2.2017 z"
         id="path4249"
         inkscape:connector-curvature="0" />
    </clipPath>
  </defs>
  <sodipodi:namedview
     id="base"
     pagecolor="#ffffff"
     bordercolor="#666666"
     borderopacity="1.0"
     inkscape:pageopacity="0.0"
     inkscape:pageshadow="2"
     inkscape:zoom="0.38890872"
     inkscape:cx="277.17375"
     inkscape:cy="264.87582"
     inkscape:document-units="px"
     inkscape:current-layer="layer1"
     showgrid="false"
     inkscape:window-width="654"
     inkscape:window-height="735"
     inkscape:window-x="264"
     inkscape:window-y="0"
     inkscape:window-maximized="0"
     showguides="true"
     inkscape:guide-bbox="true" />
  <metadata
     id="metadata5253">
    <rdf:RDF>
      <cc:Work
         rdf:about="">
        <dc:format>image/svg+xml</dc:format>
        <dc:type
           rdf:resource="http://purl.org/dc/dcmitype/StillImage" />
        <dc:title />
      </cc:Work>
    </rdf:RDF>
  </metadata>
  <g
     inkscape:label="Camada 1"
     inkscape:groupmode="layer"
     id="layer1"
     transform="translate(0,-308.36218)">
    <path
       inkscape:connector-curvature="0"
       id="path4152"
       style="font-style:normal;font-variant:normal;font-weight:normal;font-stretch:normal;font-size:medium;line-height:147.00000286%;font-family:'Eras Bold ITC';-inkscape-font-specification:'Eras Bold ITC';letter-spacing:0px;word-spacing:0px;fill:#2fc3df;fill-opacity:1;stroke:none"
       d="m 191.19596,740.18653 q 8.65716,-8.36362 21.19085,-21.02205 12.59015,-12.65844 19.61424,-20.11787 l -3.89968,-11.24566 q -1.11351,-3.05159 -3.26736,-8.53315 l -3.49409,-8.75918 q -1.2838,-3.27763 -2.85362,-7.45944 7.25354,0.11302 14.87348,0.11302 6.03951,0 12.95343,-0.11302 1.27659,4.91644 3.19174,10.68055 1.98546,5.70761 2.92053,9.94592 3.215,-3.89925 8.52468,-9.66336 5.32356,-5.82062 9.52109,-10.96311 5.95532,0.11302 13.01082,0.11302 4.57197,0 13.00988,-0.11302 -5.49289,5.82062 -16.12994,16.50118 -10.63704,10.68055 -20.35807,21.07856 5.315,15.59699 15.12429,39.55761 -8.89041,-0.11303 -13.34949,-0.11303 -7.45061,0 -14.75964,0.11303 -1.09147,-4.52087 -3.4065,-11.4152 -2.2447,-6.95084 -3.75087,-12.77146 -3.17243,3.95576 -9.95782,11.13265 -6.78538,7.17687 -12.06637,13.05401 -8.21307,-0.11303 -13.01082,-0.11303 -5.30574,0 -13.63076,0.11303 z" />
    <path
       inkscape:connector-curvature="0"
       id="path4154"
       style="font-style:normal;font-variant:normal;font-weight:normal;font-stretch:normal;font-size:medium;line-height:147.00000286%;font-family:'Eras Bold ITC';-inkscape-font-specification:'Eras Bold ITC';letter-spacing:0px;word-spacing:0px;fill:#2fc3df;fill-opacity:1;stroke:none"
       d="m 281.56284,740.18653 4.68037,-14.46679 8.40403,-28.25544 5.53193,-20.00484 q 0.84723,-3.22113 1.63799,-6.44224 0.59653,-2.42997 1.89962,-7.96804 7.40899,0.16953 11.92451,0.16953 4.34619,0 11.96518,-0.22604 7.63287,-0.28256 12.88216,-0.28256 7.5635,0 10.94008,0.96069 3.43302,0.96069 5.85481,3.05159 2.43566,2.03439 3.67498,4.80342 1.23932,2.76904 1.32487,6.32922 0.0994,3.50368 -0.80232,7.17688 -1.85898,7.57246 -7.06774,13.84517 -5.20876,6.2727 -12.63217,9.3808 -7.42341,3.1081 -15.72068,3.1081 -3.04799,0 -6.88903,-0.67813 0.18661,-2.5995 0.20727,-7.74199 0.0207,-5.14249 -0.15912,-7.62897 2.35867,0.50859 5.06799,0.50859 5.70084,0 9.13251,-2.71251 3.50198,-2.76904 4.47308,-6.7248 0.47168,-1.92137 0.2115,-3.39065 -0.24632,-1.5258 -1.36513,-2.48648 -1.11882,-0.96068 -2.68633,-1.24324 -1.56751,-0.28255 -3.65594,-0.28255 -2.03199,0 -4.26105,0.11302 l -4.82453,0.33907 q -3.41126,10.90659 -7.08039,24.24316 -6.69916,24.29968 -7.89224,29.15961 l -1.80349,7.34642 -11.20461,-0.11303 q -2.37065,0 -11.76811,0.11303 z" />
    <path
       inkscape:connector-curvature="0"
       id="path4156"
       style="font-style:normal;font-variant:normal;font-weight:normal;font-stretch:normal;font-size:medium;line-height:147.00000286%;font-family:'Eras Bold ITC';-inkscape-font-specification:'Eras Bold ITC';letter-spacing:0px;word-spacing:0px;fill:#2fc3df;fill-opacity:1;stroke:none"
       d="m 421.08595,661.57989 q 9.03104,0 16.78822,2.42997 7.75717,2.42997 12.70453,7.79851 4.96122,5.31202 6.35926,12.26286 1.39805,6.95083 -0.82163,15.99257 -2.33066,9.49383 -7.72983,17.46186 -5.32886,7.91152 -13.12304,13.44959 -7.79417,5.53807 -17.35048,8.13757 -9.54244,2.54299 -19.19437,2.54299 -9.53904,0 -17.67745,-2.48648 -8.12454,-2.54299 -13.24218,-8.13757 -5.04732,-5.65108 -6.06413,-12.54541 -1.0168,-6.89433 1.05027,-15.31445 3.03818,-12.37588 11.02807,-21.70018 8.06021,-9.3808 20.58275,-14.63631 12.579,-5.25552 26.69001,-5.25552 z m -5.19177,17.00978 q -6.49106,0 -12.53111,3.22112 -6.02619,3.16461 -10.24956,8.87221 -4.2095,5.65109 -5.80489,12.14984 -1.47054,5.99015 -0.15138,10.96311 1.37561,4.97296 5.93125,7.7985 4.56952,2.76903 10.43969,2.76903 6.26529,0 12.22116,-3.1081 6.02618,-3.1646 10.12279,-8.8157 4.16693,-5.70759 5.69296,-11.92379 1.4844,-6.04666 0.19299,-11.13264 -1.27754,-5.14249 -5.49452,-7.96803 -4.21698,-2.82555 -10.36938,-2.82555 z" />
    <path
       inkscape:connector-curvature="0"
       id="path4158"
       style="font-style:normal;font-variant:normal;font-weight:normal;font-stretch:normal;font-size:medium;line-height:147.00000286%;font-family:'Eras Bold ITC';-inkscape-font-specification:'Eras Bold ITC';letter-spacing:0px;word-spacing:0px;fill:#2fc3df;fill-opacity:1;stroke:none"
       d="m 472.56943,740.18653 q 9.56447,-27.46429 18.23074,-60.46664 l -24.19776,0.62161 1.82212,-6.2727 q 1.46048,-5.02946 3.0439,-11.01962 16.00235,0.11302 37.3382,0.11302 l 13.95555,-0.0565 13.54656,0 7.35161,-0.0565 -1.68435,5.48156 q -1.30787,4.40784 -2.12828,7.2899 -0.76398,2.88205 -1.12468,4.35133 -11.94029,-0.5651 -19.78601,-0.5651 l -3.95109,0 q -3.30217,10.00243 -5.83467,18.47905 -3.60358,12.14984 -6.75845,23.62155 -3.14102,11.4152 -4.87514,18.47906 -9.22907,-0.11303 -11.93839,-0.11303 -2.42709,0 -13.00987,0.11303 z" />
    <path
       inkscape:connector-curvature="0"
       id="path4160"
       style="font-style:normal;font-variant:normal;font-weight:normal;font-stretch:normal;font-size:medium;line-height:147.00000286%;font-family:'Eras Bold ITC';-inkscape-font-specification:'Eras Bold ITC';letter-spacing:0px;word-spacing:0px;fill:#2fc3df;fill-opacity:1;stroke:none"
       d="m 528.73125,740.18653 q 4.99032,-14.5798 8.02512,-24.4127 3.09121,-9.83289 7.70753,-26.10803 4.68662,-16.33164 5.99068,-21.64366 l 1.16435,-4.97296 q 13.29304,0.11302 32.2018,0.11302 17.4412,0 30.78973,-0.11302 l -0.57069,1.86486 q -0.22294,0.67813 -1.48917,4.91645 l -1.85082,6.15968 q -0.59845,1.97788 -1.09787,4.01227 -10.78271,-0.45208 -18.17688,-0.45208 -8.12794,0 -11.02046,0.0565 -2.8222,0 -8.91721,0.22604 l -3.85424,12.94099 q 6.61878,0.16953 15.48049,0.16953 3.16087,0 16.91743,-0.39557 -2.34018,7.23339 -5.3037,17.23581 -9.73707,-0.11301 -14.98636,-0.11301 -7.78928,0 -17.53831,0.39557 l -4.04847,13.73215 6.49106,0 q 2.87865,0 11.95131,-0.16954 l 11.75328,-0.28255 q 2.61031,-0.0565 8.80336,-0.45209 -2.73053,8.36361 -5.37401,17.29233 -13.7446,-0.11303 -30.16981,-0.11303 l -24.84925,0.0565 -8.02893,0.0565 z" />
    <path
       inkscape:connector-curvature="0"
       id="path4162"
       style="font-style:normal;font-variant:normal;font-weight:normal;font-stretch:normal;font-size:medium;line-height:147.00000286%;font-family:'Eras Bold ITC';-inkscape-font-specification:'Eras Bold ITC';letter-spacing:0px;word-spacing:0px;fill:#2fc3df;fill-opacity:1;stroke:none"
       d="m 676.43656,721.36841 q -1.49582,3.33414 -3.92591,9.32429 -2.41622,5.93364 -3.55951,9.21127 -12.50908,1.75184 -21.99169,1.75184 -9.14392,0 -16.49116,-2.26044 -7.27694,-2.31694 -12.60457,-7.51594 -5.25732,-5.25551 -6.3454,-12.31937 -1.08808,-7.06386 1.06223,-15.82304 2.51101,-10.22848 8.29047,-18.36604 5.84978,-8.19408 14.29354,-13.61913 8.51406,-5.48155 17.60591,-7.79849 9.10571,-2.37347 18.1932,-2.37347 8.35371,0 20.13133,2.14742 l -1.05243,4.74691 q -0.65013,3.1081 -1.33997,6.83782 l -1.18642,6.44224 q -6.21551,-1.58231 -10.19719,-2.14741 -3.92524,-0.56512 -7.42477,-0.56512 -7.61994,0 -14.46504,3.0516 -6.84509,3.05159 -11.77354,8.8722 -4.92844,5.82062 -6.66257,12.88448 -1.58152,6.44224 0.21598,11.07614 1.81138,4.57737 6.15418,7.12037 4.4131,2.48647 11.75083,2.48647 4.00752,0 8.84498,-0.62162 4.90777,-0.67813 12.47752,-2.54298 z" />
    <path
       sodipodi:nodetypes="ssscsssssssscczcssccsscsssssssssssssssssss"
       style="fill:#2fc3df;fill-opacity:1"
       d="m 126.87337,762.89414 c -2.24503,-0.39251 -7.14234,-1.63416 -10.88323,-2.75923 -15.3456,-4.6153 -26.247781,-3.54017 -37.70062,3.71785 -2.145771,1.35975 -4.096766,2.32714 -4.335684,2.14974 -0.711765,-0.52832 5.471915,-7.86272 9.245718,-10.96641 4.660891,-3.8334 9.973694,-6.56845 16.493804,-8.4912 5.843262,-1.72327 9.684652,-2.02484 22.240052,-1.74601 4.97812,0.11061 11.5511,-0.30704 16.56288,-1.05221 10.3009,-1.53161 11.17277,-1.12911 9.26767,4.27899 -1.83827,5.2191 -7.28824,12.32421 -10.64032,13.8714 -3.65883,1.68899 -5.35121,1.85356 -10.25027,0.99708 z M 75.305542,751.51695 c -0.253881,-1.71286 5.590376,-14.30478 9.850743,-21.22368 7.298963,-12.31816 18.141785,-20.20754 29.480405,-26.13248 4.25189,-2.31083 8.59705,-4.20823 15.22714,-5.853 6.62984,-1.64474 23.68603,-6.54668 35.11792,-9.90031 10.70142,-2.72946 20.18057,-6.44846 22.50016,-7.53505 2.41736,-1.13243 10.23456,-3.88978 11.69775,-3.56379 1.98192,0.44162 1.5759,3.67855 -1.18736,9.46191 -1.98142,5.47295 -4.66563,9.94698 -7.51793,13.89105 -5.92356,8.16246 -10.68172,11.75709 -19.36281,14.62852 -10.13281,3.35156 -19.61345,5.00042 -34.50541,6.00114 -7.67654,0.51588 -16.50378,1.31673 -19.61595,1.77963 -15.56307,2.31403 -24.613262,7.87055 -35.532401,21.81173 -3.299958,4.21328 -6.068461,7.19872 -6.152257,6.63433 z m -1.022259,-16.63931 c -0.08479,-0.56315 0.610014,-4.81885 1.541244,-9.45707 0.931231,-4.63827 1.767443,-9.09559 1.857972,-9.90521 0.08978,-0.80961 0.683834,-3.17765 1.317789,-5.26224 0.633955,-2.08459 1.827047,-6.00741 2.651039,-8.71739 4.119461,-13.5462 10.039783,-25.36577 17.667693,-35.2717 13.5213,-17.55978 30.25402,-28.00628 71.31595,-44.52407 31.2269,-12.56153 45.0547,-19.01643 57.4672,-26.82638 23.60797,-14.85389 27.64463,-16.62465 28.7225,-12.59932 0.9028,3.37166 -6.90791,24.44342 -12.91228,34.83462 -5.65297,9.78284 -12.77836,16.63292 -22.33856,21.47526 -10.17046,5.1515 -32.30502,12.81534 -60.93699,21.0987 -10.05525,2.90906 -21.341,6.42114 -25.07963,7.80459 -19.27029,7.13128 -31.5339,17.21713 -45.390136,37.33039 -3.438371,4.99116 -8.263362,14.34278 -11.771812,22.81541 -1.853981,4.47737 -3.503462,8.16039 -3.665566,8.18448 -0.162105,0.025 -0.362866,-0.41693 -0.446413,-0.98007 z"
       id="path5275"
       inkscape:connector-curvature="0" />
    <g
       id="g5070"
       transform="matrix(0.36891274,0,0,0.36891274,-305.52711,-311.62316)" />
  </g>
</svg>
